<svg width="33" height="33" viewBox="0 0 33 33" fill="none" xmlns="http://www.w3.org/2000/svg">
<g id="points" filter="url(#filter0_dd_916_8284)">
<g clip-path="url(#clip0_916_8284)">
<circle id="Ellipse 45" cx="16.0293" cy="15.5" r="11.8125" fill="#FFC577" stroke="#FFAF44" stroke-width="0.375"/>
<circle id="Ellipse 56" cx="16.0293" cy="15.5" r="10.3125" fill="url(#paint0_linear_916_8284)" stroke="#FDBD4D" stroke-width="0.375"/>
<g id="Vector" filter="url(#filter1_dd_916_8284)">
<path d="M13.7313 9.956C14.4603 9.65597 15.2409 9.50107 16.0293 9.5C16.8153 9.5 17.5953 9.656 18.3273 9.956C19.0533 10.256 19.7133 10.7 20.2713 11.258C20.8293 11.816 21.2733 12.476 21.5733 13.202C21.8733 13.934 22.0293 14.714 22.0293 15.5C22.0293 17.09 21.3993 18.62 20.2713 19.742C19.7148 20.2999 19.0536 20.7424 18.3256 21.044C17.5977 21.3457 16.8173 21.5007 16.0293 21.5C15.2409 21.4989 14.4603 21.344 13.7313 21.044C13.004 20.7421 12.3433 20.2997 11.7873 19.742C11.2294 19.1855 10.7869 18.5243 10.4852 17.7963C10.1836 17.0684 10.0286 16.288 10.0293 15.5C10.0293 13.91 10.6593 12.38 11.7873 11.258C12.3453 10.7 13.0053 10.256 13.7313 9.956ZM16.0293 18.5L16.9653 16.448L19.0293 15.5L16.9653 14.564L16.0293 12.5L15.0873 14.564L13.0293 15.5L15.0873 16.448L16.0293 18.5Z" fill="#FDE194"/>
</g>
</g>
</g>
<defs>
<filter id="filter0_dd_916_8284" x="0.0292969" y="0.5" width="32" height="32" filterUnits="userSpaceOnUse" color-interpolation-filters="sRGB">
<feFlood flood-opacity="0" result="BackgroundImageFix"/>
<feColorMatrix in="SourceAlpha" type="matrix" values="0 0 0 0 0 0 0 0 0 0 0 0 0 0 0 0 0 0 127 0" result="hardAlpha"/>
<feOffset dy="1"/>
<feGaussianBlur stdDeviation="2"/>
<feColorMatrix type="matrix" values="0 0 0 0 0 0 0 0 0 0 0 0 0 0 0 0 0 0 0.12 0"/>
<feBlend mode="normal" in2="BackgroundImageFix" result="effect1_dropShadow_916_8284"/>
<feColorMatrix in="SourceAlpha" type="matrix" values="0 0 0 0 0 0 0 0 0 0 0 0 0 0 0 0 0 0 127 0" result="hardAlpha"/>
<feOffset/>
<feGaussianBlur stdDeviation="0.5"/>
<feColorMatrix type="matrix" values="0 0 0 0 0 0 0 0 0 0 0 0 0 0 0 0 0 0 0.039 0"/>
<feBlend mode="normal" in2="effect1_dropShadow_916_8284" result="effect2_dropShadow_916_8284"/>
<feBlend mode="normal" in="SourceGraphic" in2="effect2_dropShadow_916_8284" result="shape"/>
</filter>
<filter id="filter1_dd_916_8284" x="8.5293" y="8.5" width="15" height="15" filterUnits="userSpaceOnUse" color-interpolation-filters="sRGB">
<feFlood flood-opacity="0" result="BackgroundImageFix"/>
<feColorMatrix in="SourceAlpha" type="matrix" values="0 0 0 0 0 0 0 0 0 0 0 0 0 0 0 0 0 0 127 0" result="hardAlpha"/>
<feOffset dy="0.5"/>
<feGaussianBlur stdDeviation="0.75"/>
<feColorMatrix type="matrix" values="0 0 0 0 0 0 0 0 0 0 0 0 0 0 0 0 0 0 0.12 0"/>
<feBlend mode="normal" in2="BackgroundImageFix" result="effect1_dropShadow_916_8284"/>
<feColorMatrix in="SourceAlpha" type="matrix" values="0 0 0 0 0 0 0 0 0 0 0 0 0 0 0 0 0 0 127 0" result="hardAlpha"/>
<feOffset/>
<feGaussianBlur stdDeviation="0.5"/>
<feColorMatrix type="matrix" values="0 0 0 0 0 0 0 0 0 0 0 0 0 0 0 0 0 0 0.039 0"/>
<feBlend mode="normal" in2="effect1_dropShadow_916_8284" result="effect2_dropShadow_916_8284"/>
<feBlend mode="normal" in="SourceGraphic" in2="effect2_dropShadow_916_8284" result="shape"/>
</filter>
<linearGradient id="paint0_linear_916_8284" x1="24.5605" y1="21.4062" x2="6.6543" y2="11" gradientUnits="userSpaceOnUse">
<stop stop-color="#FEC258"/>
<stop offset="0.493004" stop-color="#F8AA1E"/>
<stop offset="0.978599" stop-color="#FEC258"/>
</linearGradient>
<clipPath id="clip0_916_8284">
<path d="M4.0293 15.5C4.0293 8.87258 9.40188 3.5 16.0293 3.5C22.6567 3.5 28.0293 8.87258 28.0293 15.5C28.0293 22.1274 22.6567 27.5 16.0293 27.5C9.40188 27.5 4.0293 22.1274 4.0293 15.5Z" fill="white"/>
</clipPath>
</defs>
</svg>
